<svg xmlns="http://www.w3.org/2000/svg" xmlns:xlink="http://www.w3.org/1999/xlink" viewBox="0 0 1441.71 230.28"><defs><style>.cls-1{fill:none;}.cls-2{fill:#fff;}.cls-3{fill:#d3db66;}.cls-4{clip-path:url(#clip-path);}.cls-5{fill:url(#radial-gradient);}.cls-6{clip-path:url(#clip-path-2);}.cls-7{fill:url(#radial-gradient-2);}</style><clipPath id="clip-path"><path class="cls-1" d="M631.73,117.49h0a57.1,57.1,0,0,0-17.08-40.54,58.41,58.41,0,0,0-41-16.89c2.34,30.66,27.08,55.11,58.1,57.44"/></clipPath><radialGradient id="radial-gradient" cx="554.27" cy="921.9" r="6.16" gradientTransform="matrix(6.7, 6.63, -6.7, 6.63, 3036.71, -9663.54)" gradientUnits="userSpaceOnUse"><stop offset="0" stop-color="#8f8f8f"/><stop offset="0" stop-color="#8f8f8f"/><stop offset="0.15" stop-color="#939393"/><stop offset="0.31" stop-color="#9f9f9f"/><stop offset="0.46" stop-color="#b4b4b4"/><stop offset="0.62" stop-color="#d0d0d0"/><stop offset="0.77" stop-color="#f5f5f5"/><stop offset="0.81" stop-color="#fff"/><stop offset="1" stop-color="#fff"/></radialGradient><clipPath id="clip-path-2"><path class="cls-1" d="M573.42,117.7Zm0,0,41.24,40.77a57.12,57.12,0,0,0,17.09-40.77ZM532.16,76.94l41.26,40.76V60.05a58.54,58.54,0,0,0-41.26,16.89"/></clipPath><radialGradient id="radial-gradient-2" cx="554.42" cy="921.98" r="6.15" gradientTransform="matrix(6.71, 6.64, -6.71, 6.64, 3040.99, -9683.78)" gradientUnits="userSpaceOnUse"><stop offset="0" stop-color="#8f8f8f"/><stop offset="0" stop-color="#8f8f8f"/><stop offset="0.14" stop-color="#939393"/><stop offset="0.28" stop-color="#9f9f9f"/><stop offset="0.42" stop-color="#b4b4b4"/><stop offset="0.56" stop-color="#d0d0d0"/><stop offset="0.7" stop-color="#f5f5f5"/><stop offset="0.74" stop-color="#fff"/><stop offset="1" stop-color="#fff"/></radialGradient></defs><g id="Layer_2" data-name="Layer 2"><g id="CONTENIDO"><rect class="cls-2" x="449.59" y="9.06" width="7.59" height="213.3"/><rect class="cls-2" x="1009.07" y="9.06" width="7.6" height="213.3"/><path class="cls-2" d="M346.05,49.23C309.17,21.69,250.16,0,191.88,0V6.42h0c61.8,0,111.91,48.68,111.91,108.73S253.7,223.88,191.9,223.88h0v6.4c58.28,0,117.29-21.68,154.17-49.23,24.72-18.48,37.72-41.75,37.72-65.9s-13-47.44-37.72-65.92"/><path class="cls-2" d="M191.88,223.88C130.07,223.88,80,175.19,80,115.15S130.07,6.42,191.88,6.42V0C133.6,0,74.59,21.69,37.71,49.23,13,67.71,0,91,0,115.15s13,47.42,37.71,65.9c36.88,27.55,95.89,49.23,154.17,49.23Z"/><path class="cls-2" d="M206,115.56c-5.1-2.73-10.95-4.33-10.95-7.62,0-1.8,1.19-3.67,4.3-3.67,4.78,0,9.87,4.44,11.15,8h5.6V99.64H210v4a19.31,19.31,0,0,0-12.74-5.14c-8.65,0-16.49,4.59-16.49,12.72,0,6.34,3,10.34,9.91,14,8.6,4.53,12.2,5.89,12.2,9.39,0,2.32-2,3.57-4.21,3.57a12.59,12.59,0,0,1-11.06-8.43h-6.38v13.66h6.38v-4.07a22.37,22.37,0,0,0,13.13,5.18c12.1,0,16.43-7.82,16.43-13.79,0-9.08-5.93-12.41-11.16-15.18m52.45-3c0-10.66-7.89-14-13.61-14-6.7,0-12.21,2.72-14.69,5.14v-4h-6v12.67h5.49c.91-2.42,4.31-6.75,8.63-6.75,2.37,0,4.29,1.6,4.29,5.77v4.83a13.89,13.89,0,0,0-8.18-2.54c-5,0-13.21,4.62-13.21,16.27,0,8.13,4,14.54,12,14.54a10.76,10.76,0,0,0,9.38-5.08v4.07H262.9v-6h-4.44Zm-15.87,18c0,4.66-1.92,5.82-3.33,5.82-2.26,0-3.66-1.76-3.66-5.87,0-6.36,2.45-9.71,5-9.71,1.21,0,2,.84,2,2.44Zm-107,6.29H117.85V112.24h9v6h7.71V99.64h-7.71v6h-9V84.33H134.6v8.75h7.68V77.77H92.37v6.56h5.84v52.52H92.37v6.57h51V127h-7.71Zm35.24-37.21H148.59v6h5.3V137.4h-5.3v6h27.6v-6h-5.31Zm-8.48-3.81a9.31,9.31,0,1,0-9.31-9.31,9.32,9.32,0,0,0,9.31,9.31M289.17,137.4V99.64H266.9v6h5.29V137.4H266.9v6h27.6v-6ZM280.7,95.83a9.31,9.31,0,1,0-9.31-9.31,9.31,9.31,0,0,0,9.31,9.31"/><path class="cls-2" d="M1336.87,91.56c.65-.07,4.16.4,4.8,1a1.14,1.14,0,0,0,.31.31c.46.25,1.5.87,2.12,1.22a5.91,5.91,0,0,0,.92.39c1.25.52.92,2.07.49,3.6-.39.94-1.87,2.44-1.87,3.3,0,1.09-2.67,2.09-3.45,2.66a15.89,15.89,0,0,1-3.84,1.79c-.13,0-.28-.08-.41-.06-1.18.29-2.47,1-3.65,1.4a2.66,2.66,0,0,0-.45.2c-.52.28-1.8.93-2.49,1.27l-.81.51c-.49.36-1.35,1-1.83,1.43-.26.24-.5.47-.76.68-.67.54-.66.63-.83,1.92,0,.3-.32.52-.42.81-.23.69-.17,2.14-.54,2.47-.09.1,0,.23,0,.4-.06,1.51,1.18,3.38,2.48,3.32,1-.07,6.3.33,7.63-.32a1.8,1.8,0,0,1,.83-.29c1.6.09,3.14-.2,4.91-.11.31,0,.64-.23,1-.25,1,0,3.19-.47,3.43-.47,2.18,0,4-2,5.85-2a39.87,39.87,0,0,0,4.11-2.33c.46-.9,3.08-1.85,3.89-2.46,2-1.59,2.93-3.9,5-4.94.74-.37,1-1.72,2.27-1.72,2.13,0,1.33,1.36.81,2.94a6.36,6.36,0,0,1-.47.85c-.48,1.11-1.45,3.22-1.69,3.75-.52,1.07-1.22,1.57-2,2.81-.08.16-.14.32-.23.48-.31.62-1.49,1.39-2.09,1.94a2.32,2.32,0,0,1-.88.49c-1.06.34-2.79,2.37-3.77,2.83-.32.15-.59.37-.9.49-1.81.7-2.81.76-4.63,1.89a13.53,13.53,0,0,1-2.94,1.38,3.34,3.34,0,0,0-.57.11,8.64,8.64,0,0,1-2.33.78c-.6,0-1.53.35-2.59.37-.32,0-1.26.7-1.55.62a27.52,27.52,0,0,0-3.54.08.79.79,0,0,0-.4.16c-1.23.63-8.15.42-9.22.42-2.91,0-5.85-.13-8-1.2-.55-.26-2.91-1.4-3.13-1.85a7.23,7.23,0,0,0-1.1-.74,2.23,2.23,0,0,1-.77-.54c-.57-.84-.29-1.94-.43-3.24,0-.14-.14-.24-.2-.38a4.19,4.19,0,0,1,.43-2.36,2.58,2.58,0,0,0,.2-.41c.2-1,0-2.5.28-3.52a2.33,2.33,0,0,1,.52-.88c.27-.34.45-.81.71-1.14a4.7,4.7,0,0,0,.6-.79,7.15,7.15,0,0,0,.42-1.18,3.69,3.69,0,0,1,.42-.9c.15-.31.29-.76.42-1.13s.37-.59.4-.92.51-1,.51-1.47a1.06,1.06,0,0,1,.39-.73c.6-.7,1.3-2.54,2.18-2.54.68,0,.89-2,1.6-2s2.43-1.69,3.05-2.12c.47-.29.8-.54,1.32-.81s1.63-.58,1.81-.94c.52-1.06,2.47-2.08,3.56-2.55a1.58,1.58,0,0,0,.41-.29,18.05,18.05,0,0,1,4-1.47l.38,0a1.36,1.36,0,0,0,.27,0"/><path class="cls-2" d="M1309.84,98.85a1.1,1.1,0,0,0-.41-.26,2.26,2.26,0,0,0-1.87,0,1.34,1.34,0,0,1-.33.3c-1.18.71-2.77,2.74-3.86,2.77s-2.24,1.92-3.33,1.92a5.33,5.33,0,0,0-1.61,1.45c0,.51-1.46.81-1.73.93-1.6.72-2.76,2.08-4.27,2.92-2.14,1.07-4.59,2.65-6.63,3.88-.26.17-.46.38-.72.57a22.85,22.85,0,0,1-3.22,1.75c-.3.13-.62.29-.94.44s-1.15.52-1.63.76c-.27.12-.44.41-.71.5a.87.87,0,0,1-1.15-.74.5.5,0,0,1,.17-.4,29.71,29.71,0,0,0,2.11-3.22c.09-.14.22-.27.33-.41a6,6,0,0,0,1-2.45c0-.68,1.06-1.22,1.06-1.72,0-.12,1.8-2.32,2.2-3,.07-.13.08-.28.14-.42.67-2.06.48-5.87-2-6.27a2.22,2.22,0,0,0-1,.19c-.19.09-4.54.29-4.49.31-1.23-.1-2.61.69-3.77.88-.3.05-.28.12-.57.22-.73.23-2.31.65-2.44,1.37a.09.09,0,0,1-.06.06,11.8,11.8,0,0,0-1.15.64,10.09,10.09,0,0,1-.78.93c-1,.68-2.34,1.51-2.33,3.28,0,2.46,1.34,3.54,3.75,3.49.54,0,2.5-1.11,2.45-.22a2,2,0,0,1-.38,1c-.29.44-.73,1-.84,1.29-.59,1.23-.72,2.77-1.59,3.85a5.73,5.73,0,0,0-1.15,1.8c0,.14-.15.21-.2.29-.35.51-.43,2.64-.52,3.64a2.94,2.94,0,0,0-.08,1c.13,1.37.77,4.39,1.46,5,.1.11.24.16.34.28,1.39,1.65,5,1.37,7.07.44.27-.14.42-.44.63-.68a7.42,7.42,0,0,1,2.68-1.66c1.09,0,1.62-1.22,2.29-1.69.27-.18.61-.27.88-.42,1-.53,3.29-1.46,3.78-2.06a1.21,1.21,0,0,1,.31-.33c1.39-.75,2.13-1.77,3.56-2.27a2.86,2.86,0,0,0,.88-.5c.7-.56,2.18-1.57,2.74-2a3.14,3.14,0,0,1,.44-.25c1.21-.56,2.19-1.71,3.84-1.67s2.34-2.22,3.47-2.22c.34,0,1.07-1.06,1.48-1.32a23.19,23.19,0,0,1,2.07-1.14,3.78,3.78,0,0,0,.87-.5,5.46,5.46,0,0,0,1.85-2.22c.32-.53,1-3.46,1.54-4.53a3.3,3.3,0,0,0,.42-.89c.16-.8.36-2.18,0-2.58"/><path class="cls-2" d="M1294.44,51.75c-.45-.21-.79-1.93-1.62-1.93-1.18,0-2.46-.76-3.7-.78-.1,0-.19,0-.29.08s-.43,0-.55,0-.22.19-.36.22c-1,.21-3.84.69-4.42,1.41a1.46,1.46,0,0,1-.27.38,8.29,8.29,0,0,0-1.85,2.81c-.46,4-2.43,7.67-3.21,11.74-.05.3.06.61,0,.91a41.1,41.1,0,0,1-2.16,4.1c0,1.22-1.45,2.38-1.78,3.62a1.15,1.15,0,0,1-.22.46c-.75,1.06-3.49,5.28-3.49,6a16.7,16.7,0,0,1-2.18,2.7,2.48,2.48,0,0,1-.43.34,11.55,11.55,0,0,0-1.73,2.28,38.67,38.67,0,0,0-3.6,6c0,.15-.22.22-.33.34-.61.62-1.42,3.17-2,3.58a16.23,16.23,0,0,0-2.18,2.79c-.67.92-1,3.39-2.09,3.92-.62.32-.64,1.36-.91,1.92s-1.31,1.38-1.31,1.88c0,.88-1.93,2.93-2.51,3.78a23.32,23.32,0,0,1-1.72,2.86,4.38,4.38,0,0,0-.55.71c-.28.52-.66.93-.88,1.41a4.45,4.45,0,0,0-.25.54c-.18.69-.43,2.6-.9,3.06a9.63,9.63,0,0,0-1.82,3.73c0,.77-1.72,2.51-1.7,3.59s-1.62,2.22-1.93,3.07a.94.94,0,0,1-.28.41c-1.11.86-.75,3.41-2,4-1.38.7-1,3.59.59,4.23a1.38,1.38,0,0,0,.51.15c1.21.07,6.33-.29,6.83-1.57a.7.7,0,0,1,.2-.32,3.37,3.37,0,0,0,1.41-2c.2-.36.56-.55.8-.94.31-.64.06-1.39.19-2.15,0-.15.17-.25.28-.37a16.19,16.19,0,0,0,1.6-3.59c.39-.92,1.18-2.11,1.71-3.12.08-.14.19-.24.29-.38.45-.61,1.58-2.63,2.05-3.34a1.86,1.86,0,0,1,.36-.33c.19-.18.33-.51.48-.67s.26-.21.31-.36c.21-.39.59-1.26.81-1.79l.38-.87c.3-.58.78-1.65.94-1.89.41-.65.71-1.39,1-1.87a7.65,7.65,0,0,0,1.7-3.32.47.47,0,0,1,.21-.39c1.4-.86,1.69-2.42,2.43-3.72s1.54-1.91,2.11-3.2a3.71,3.71,0,0,1,.24-.49c1.38-2.32,2-5.17,3.81-7.08.72-.78,1.64-1.41,2.33-2.2a3.1,3.1,0,0,0,.48-.79c.73-1.49,2-2.7,2.7-4.08.93-1.35,1-2.65,1.69-4a1.45,1.45,0,0,1,.36-.39,9.86,9.86,0,0,0,2.07-3v0c0,.06,0,.16.05.13.55-.69,1.26-2.52,2-3.14a2.67,2.67,0,0,0,.6-.61c.35-.61,1-1.58,1.13-1.83a14.33,14.33,0,0,1,.9-2.34,1,1,0,0,1,.36-.29,19.27,19.27,0,0,0,2.94-3.1,2.67,2.67,0,0,0,.29-.46,29.1,29.1,0,0,0,1.52-4.85c0-1,2-1.94,2-3.07s1.85-2.38,1.84-3.58c0-1,2.51-4.19.76-5"/><path class="cls-2" d="M1245.5,98.85a1.19,1.19,0,0,0-.41-.26,2.31,2.31,0,0,0-1.89,0,1.3,1.3,0,0,1-.32.3c-1.18.71-2.79,2.74-3.87,2.77s-2.22,1.92-3.33,1.92a5.11,5.11,0,0,0-1.58,1.45c0,.51-1.47.81-1.75.93-1.6.72-2.77,2.08-4.26,2.92-2.14,1.07-4.61,2.65-6.64,3.88-.26.17-.47.38-.72.57a23.42,23.42,0,0,1-3.22,1.75c-.32.13-.6.29-.92.44s-1.18.52-1.65.76c-.28.12-.42.41-.71.5a.86.86,0,0,1-1.14-.74.51.51,0,0,1,.15-.4,31.46,31.46,0,0,0,2.13-3.22c.09-.14.21-.27.31-.41a5.89,5.89,0,0,0,1-2.45c0-.68,1.06-1.22,1.06-1.72,0-.12,1.83-2.32,2.22-3,.07-.13.07-.28.13-.42.67-2.06.47-5.87-2-6.27a2.11,2.11,0,0,0-1,.19c-.21.09-4.55.29-4.51.31-1.22-.1-2.6.69-3.76.88-.3.05-.27.12-.58.22-.71.23-2.3.65-2.44,1.37,0,0,0,0-.06.06a13.16,13.16,0,0,0-1.15.64c-.24.23-.5.74-.77.93-1,.68-2.33,1.51-2.33,3.28,0,2.46,1.35,3.54,3.75,3.49.54,0,2.5-1.11,2.45-.22a1.87,1.87,0,0,1-.41,1c-.27.44-.7,1-.81,1.29-.59,1.23-.73,2.77-1.6,3.85a5.86,5.86,0,0,0-1.13,1.8,1.21,1.21,0,0,1-.22.29c-.34.51-.42,2.64-.53,3.64a5.44,5.44,0,0,0-.08,1c.15,1.37.8,4.39,1.45,5a2.75,2.75,0,0,1,.37.28c1.4,1.65,5,1.37,7.06.44.29-.14.44-.44.63-.68a7.3,7.3,0,0,1,2.7-1.66c1.08,0,1.61-1.22,2.28-1.69a8.89,8.89,0,0,1,.88-.42c1-.53,3.29-1.46,3.78-2.06a1.9,1.9,0,0,1,.3-.33c1.4-.75,2.14-1.77,3.57-2.27a2.88,2.88,0,0,0,.86-.5c.71-.56,2.21-1.57,2.77-2a2.91,2.91,0,0,1,.42-.25c1.22-.56,2.2-1.71,3.84-1.67s2.34-2.22,3.51-2.22c.31,0,1-1.06,1.44-1.32.57-.36,1.39-.8,2.07-1.14a3.64,3.64,0,0,0,.88-.5,5.46,5.46,0,0,0,1.85-2.22c.32-.53,1-3.46,1.54-4.53a4,4,0,0,0,.42-.89c.15-.8.36-2.18,0-2.58"/><path class="cls-2" d="M1230.09,51.75c-.46-.21-.8-1.93-1.62-1.93-1.18,0-2.45-.76-3.71-.78-.09,0-.19,0-.28.08s-.43,0-.56,0-.22.19-.36.22c-1,.21-3.83.69-4.41,1.41a1.49,1.49,0,0,1-.28.38,7.78,7.78,0,0,0-1.83,2.81c-.47,4-2.44,7.67-3.23,11.74a5.53,5.53,0,0,1,0,.91,39.42,39.42,0,0,1-2.15,4.1c0,1.22-1.46,2.38-1.77,3.62a1.83,1.83,0,0,1-.24.46c-.74,1.06-3.49,5.28-3.48,6a17.45,17.45,0,0,1-2.19,2.7,1.83,1.83,0,0,1-.42.34,11.55,11.55,0,0,0-1.73,2.28,37.16,37.16,0,0,0-3.59,6c-.07.15-.23.22-.33.34-.63.62-1.43,3.17-2.05,3.58a14.8,14.8,0,0,0-2.16,2.79c-.69.92-1,3.39-2.11,3.92-.62.32-.64,1.36-.9,1.92s-1.32,1.38-1.31,1.88c0,.88-1.92,2.93-2.5,3.78a28.26,28.26,0,0,1-1.73,2.86,5.22,5.22,0,0,0-.57.71c-.27.52-.63.93-.86,1.41a2.2,2.2,0,0,0-.25.54c-.19.69-.43,2.6-.9,3.06a9.38,9.38,0,0,0-1.83,3.73c0,.77-1.72,2.51-1.7,3.59s-1.61,2.22-1.93,3.07a1,1,0,0,1-.27.41c-1.11.86-.75,3.41-2,4-1.4.7-1,3.59.59,4.23a1.5,1.5,0,0,0,.51.15c1.21.07,6.34-.29,6.83-1.57a.55.55,0,0,1,.22-.32,3.59,3.59,0,0,0,1.41-2c.2-.36.53-.55.79-.94.3-.64.06-1.39.19-2.15,0-.15.17-.25.28-.37.6-.6,1.36-3.06,1.59-3.59.39-.92,1.17-2.11,1.73-3.12a4.28,4.28,0,0,1,.26-.38c.46-.61,1.6-2.63,2.06-3.34a1.65,1.65,0,0,1,.37-.33c.18-.18.31-.51.47-.67s.25-.21.32-.36c.19-.39.6-1.26.82-1.79.1-.29.24-.58.37-.87.29-.58.77-1.65.94-1.89.41-.65.72-1.39,1-1.87a7.62,7.62,0,0,0,1.68-3.32.51.51,0,0,1,.23-.39c1.41-.86,1.66-2.42,2.41-3.72a32.78,32.78,0,0,0,2.12-3.2,3.8,3.8,0,0,1,.26-.49c1.37-2.32,1.94-5.17,3.79-7.08.74-.78,1.64-1.41,2.36-2.2a3.32,3.32,0,0,0,.46-.79c.73-1.49,2-2.7,2.7-4.08.92-1.35,1-2.65,1.67-4a1.93,1.93,0,0,1,.37-.39,9.68,9.68,0,0,0,2.07-3v0c0,.06,0,.16.06.13.55-.69,1.26-2.52,2-3.14a2.67,2.67,0,0,0,.6-.61c.34-.61,1-1.58,1.14-1.83a14.33,14.33,0,0,1,.9-2.34,1,1,0,0,1,.36-.29,18.43,18.43,0,0,0,2.94-3.1c.1-.16.21-.31.29-.46a29.26,29.26,0,0,0,1.53-4.85c0-1,2-1.94,2-3.07s1.85-2.38,1.84-3.58c0-1,2.53-4.19.77-5"/><path class="cls-2" d="M1277.9,79.84v0Z"/><path class="cls-2" d="M1100.73,167.27a8.82,8.82,0,0,0,.27-1.57c.06-1.53-1.23-1.88-3.34-1.88l.2-.72,7.58-.66-5.17,20.33.08.08c1.72-3.68,6-11.12,10.53-11.12a2.39,2.39,0,0,1,2.54,2.74,15.31,15.31,0,0,1-.48,2.27L1110,187.11a8,8,0,0,0-.23,1.29c0,.28.15.65.46.65.87,0,2.82-1.76,4-2.85l.59.46c-1.36,1.25-4.81,4.92-7.11,4.92a1.68,1.68,0,0,1-1.68-1.91,11.83,11.83,0,0,1,.49-2.56l2.77-9.92a7.51,7.51,0,0,0,.38-1.73c0-.66-.28-1.2-1-1.2-3.46,0-9.37,12.23-10.53,16.91h-3.5Z"/><path class="cls-2" d="M1132.16,182.52l-.09-.08c-2.1,4.8-6,9.14-9.49,9.14-1.86,0-2.93-1.25-2.87-3.31a18.88,18.88,0,0,1,.77-3.42l2.46-8.65a8.6,8.6,0,0,0,.22-1.28c0-.29-.16-.66-.43-.66-.91,0-2.85,1.78-4,2.84l-.52-.44c1.34-1.25,4.79-4.93,7-4.93a1.7,1.7,0,0,1,1.7,1.92,12.28,12.28,0,0,1-.5,2.55l-2.78,9.92a11.18,11.18,0,0,0-.38,1.73c0,.67.28,1.2,1,1.2,3.14,0,9.5-9.3,10.53-16.91h3.52l-3.77,15a7.92,7.92,0,0,0-.22,1.29c0,.42.16.66.43.66.89,0,2.84-1.77,4-2.84l.57.46c-1.35,1.24-4.81,4.91-7.07,4.91a1.7,1.7,0,0,1-1.67-1.91,14.73,14.73,0,0,1,.44-2.57Z"/><path class="cls-2" d="M1147,176.2a5.24,5.24,0,0,0,.21-1.28c0-.38-.19-.66-.46-.66-.85,0-2.81,1.78-4,2.84l-.55-.45c1.35-1.24,4.81-4.92,7.06-4.92a1.69,1.69,0,0,1,1.72,1.92,15.61,15.61,0,0,1-.5,2.55L1149,182l.08.08c1.69-3.26,5.27-10.38,10-10.38a2.39,2.39,0,0,1,2.56,2.74,11.68,11.68,0,0,1-.41,2.27l-1.35,5.29.09.08c1.46-3,5.4-10.38,10.08-10.38a2.38,2.38,0,0,1,2.55,2.74,13.11,13.11,0,0,1-.48,2.27l-2.92,10.36a6.54,6.54,0,0,0-.23,1.29c0,.29.17.67.43.67.88,0,2.84-1.77,4-2.86l.52.46c-1.34,1.25-4.8,4.92-7,4.92a1.69,1.69,0,0,1-1.69-1.92,15.9,15.9,0,0,1,.45-2.56l2.83-9.91a6.92,6.92,0,0,0,.37-1.73c0-.66-.28-1.2-1-1.2-3.36,0-9.29,12.81-10.3,16.91h-3.5l3.54-14a9.68,9.68,0,0,0,.3-1.73c0-.66-.23-1.2-1-1.2-2.83,0-7.72,8.31-10.26,16.91h-3.51Z"/><path class="cls-2" d="M1188.64,185l-.08-.07c-1.06,1.82-3.8,6.66-7.84,6.66-3.59,0-4.27-2.65-4.2-5,.16-4.13,4.93-14.84,11.45-14.84a3.2,3.2,0,0,1,3.39,2.25h.09l.38-1.84h3.5l-3.8,15a8.59,8.59,0,0,0-.24,1.29c0,.29.17.67.49.67.85,0,2.81-1.77,4-2.85l.57.46c-1.36,1.24-4.81,4.91-7.06,4.91a1.72,1.72,0,0,1-1.73-1.91,15.14,15.14,0,0,1,.49-2.57Zm-6.26,4.48c3.58,0,8.2-8.89,8.38-13.56,0-1.28-.35-2.8-2.07-2.8-4.44,0-8,8.87-8.15,13.17-.08,2.4.91,3.19,1.84,3.19"/><path class="cls-2" d="M1203.88,176.2a9.83,9.83,0,0,0,.22-1.28c0-.29-.21-.66-.41-.66-.92,0-2.87,1.78-4.08,2.84l-.52-.45c1.33-1.24,4.8-4.92,7.06-4.92a1.7,1.7,0,0,1,1.68,1.92,11.09,11.09,0,0,1-.5,2.55l-1.66,6.57.08.08c1.69-3.68,6.06-11.12,10.55-11.12a2.37,2.37,0,0,1,2.51,2.74,11,11,0,0,1-.44,2.27l-2.91,10.36a5.27,5.27,0,0,0-.29,1.29c0,.29.21.67.48.67.91,0,2.85-1.77,4-2.86l.58.46c-1.37,1.25-4.8,4.92-7.06,4.92a1.73,1.73,0,0,1-1.73-1.92,11,11,0,0,1,.5-2.56l2.82-9.91a10.34,10.34,0,0,0,.32-1.73c0-.66-.31-1.2-.95-1.2-3.5,0-9.5,12.23-10.58,16.91h-3.49Z"/><path class="cls-2" d="M1244.43,167.27a8.82,8.82,0,0,0,.27-1.57c.06-1.53-1.23-1.88-3.34-1.88l.2-.72,7.58-.66L1244,182.77l.08.08c1.7-3.68,6-11.12,10.52-11.12a2.39,2.39,0,0,1,2.55,2.74,13.11,13.11,0,0,1-.48,2.27l-2.92,10.37a9.48,9.48,0,0,0-.24,1.29c0,.28.16.65.47.65.87,0,2.82-1.76,4-2.85l.58.46c-1.34,1.25-4.8,4.92-7.1,4.92a1.7,1.7,0,0,1-1.69-1.91,12.46,12.46,0,0,1,.49-2.56l2.77-9.92a6.67,6.67,0,0,0,.39-1.73c0-.66-.27-1.2-1-1.2-3.45,0-9.38,12.23-10.51,16.91h-3.52Z"/><path class="cls-2" d="M1275.53,190.61a21.6,21.6,0,0,1-6.19,1c-4.45,0-7.21-2.32-7-7.15.19-5.63,3.23-12.7,11.36-12.7,3,0,5.63,1.17,5.53,3.9-.13,3.63-3.87,4-7.28,4h-4.86a22.7,22.7,0,0,0-.73,4.15c-.11,3.42,1,6.28,6.52,6.28a8.09,8.09,0,0,0,2.94-.54Zm-4.29-12.29c1.8,0,4.39-.42,4.47-3,0-1.24-1.1-2.23-2.71-2.23-3.41,0-5.11,3.39-5.59,5.21Z"/><path class="cls-2" d="M1292.59,185l-.09-.07c-1.06,1.82-3.78,6.66-7.84,6.66-3.59,0-4.26-2.65-4.17-5,.14-4.13,4.91-14.84,11.43-14.84a3.17,3.17,0,0,1,3.38,2.25h.1l.39-1.84h3.49l-3.8,15a8.29,8.29,0,0,0-.22,1.29c0,.29.16.67.46.67.87,0,2.81-1.77,4-2.85l.56.46c-1.34,1.24-4.8,4.91-7,4.91a1.73,1.73,0,0,1-1.74-1.91,17.3,17.3,0,0,1,.48-2.57Zm-6.28,4.48c3.59,0,8.22-8.89,8.39-13.56,0-1.28-.36-2.8-2.06-2.8-4.45,0-8,8.87-8.15,13.17-.08,2.4.91,3.19,1.82,3.19"/><path class="cls-2" d="M1312.58,186.67c-1.34,1.24-4.79,4.91-7,4.91a1.73,1.73,0,0,1-1.74-1.92,14.37,14.37,0,0,1,.5-2.56l5-19.83a8.82,8.82,0,0,0,.27-1.57c.05-1.53-1.23-1.89-3.29-1.89l.14-.71,7.58-.66-6.25,24.66a7.37,7.37,0,0,0-.23,1.29c0,.29.15.67.48.67.85,0,2.79-1.77,4-2.86Z"/><path class="cls-2" d="M1325.63,186.67c-1.41,1.35-5,4.91-7.38,4.91a1.76,1.76,0,0,1-1.85-1.92,13.1,13.1,0,0,1,.44-2.56l3.48-13.67h-3.72l.32-1.29c4.13,0,6.32-2,7.63-6.15h1.17l-1.57,6.15H1330l-.31,1.29h-5.9l-3.48,13.67a7.86,7.86,0,0,0-.27,1.29.66.66,0,0,0,.65.67c.94,0,3-1.7,4.32-2.86Z"/><path class="cls-2" d="M1335.84,167.27a11.52,11.52,0,0,0,.28-1.57c.05-1.53-1.24-1.88-3.35-1.88l.2-.72,7.58-.66-5.18,20.33.1.08c1.7-3.68,6-11.12,10.51-11.12a2.39,2.39,0,0,1,2.55,2.74,14.12,14.12,0,0,1-.48,2.27l-2.93,10.37a7,7,0,0,0-.22,1.29c0,.28.15.65.47.65.85,0,2.8-1.76,4-2.85l.58.46c-1.36,1.25-4.83,4.92-7.1,4.92a1.69,1.69,0,0,1-1.69-1.91,11.77,11.77,0,0,1,.48-2.56l2.78-9.92a7.51,7.51,0,0,0,.38-1.73c0-.66-.27-1.2-1-1.2-3.49,0-9.4,12.23-10.55,16.91h-3.52Z"/><path class="cls-2" d="M1380.43,190.59a18.26,18.26,0,0,1-5.89,1c-4.7,0-7.73-2.45-7.57-7.07.21-5.87,3.86-12.78,11.33-12.78,3.42,0,6,1.92,6,4.15a2.13,2.13,0,0,1-2.27,2c-3.65,0-.5-4.79-4.24-4.79-4.19,0-6.6,6.06-6.76,10.44-.17,4.92,2.52,6.46,6.44,6.46a12.69,12.69,0,0,0,3.34-.51Z"/><path class="cls-2" d="M1397.48,185l-.09-.07c-1,1.82-3.77,6.66-7.83,6.66-3.59,0-4.25-2.65-4.17-5,.14-4.13,4.92-14.84,11.44-14.84a3.21,3.21,0,0,1,3.39,2.25h.08l.37-1.84h3.52l-3.8,15a6.44,6.44,0,0,0-.22,1.29c0,.29.14.67.45.67.85,0,2.8-1.77,4-2.85l.57.46c-1.35,1.24-4.79,4.91-7,4.91a1.71,1.71,0,0,1-1.73-1.91,15.06,15.06,0,0,1,.48-2.57Zm-6.27,4.48c3.6,0,8.23-8.89,8.41-13.56,0-1.28-.38-2.8-2.08-2.8-4.44,0-8,8.87-8.16,13.17-.07,2.4.93,3.19,1.83,3.19"/><path class="cls-2" d="M1413,176.2a5.77,5.77,0,0,0,.21-1.28c0-.29-.14-.66-.46-.66-.85,0-2.81,1.78-4,2.84l-.58-.45c1.35-1.24,4.81-4.92,7.05-4.92a1.72,1.72,0,0,1,1.73,1.92,12.67,12.67,0,0,1-.46,2.55l-.76,2.94.08.06c.92-1.85,3.58-7.47,7-7.47a1.87,1.87,0,0,1,2.09,2,2.17,2.17,0,0,1-2.19,2.07c-1,0-1.46-.69-1.94-.69-1.31,0-5.3,5-8.12,16.11h-3.52Z"/><path class="cls-2" d="M1438,190.61a21.55,21.55,0,0,1-6.2,1c-4.45,0-7.19-2.32-7-7.15.2-5.63,3.24-12.7,11.38-12.7,3,0,5.62,1.17,5.52,3.9-.12,3.63-3.88,4-7.28,4h-4.87a21.86,21.86,0,0,0-.72,4.15c-.12,3.42,1,6.28,6.54,6.28a8.2,8.2,0,0,0,2.93-.54Zm-4.29-12.29c1.8,0,4.37-.42,4.46-3,0-1.24-1.09-2.23-2.7-2.23-3.43,0-5.11,3.39-5.58,5.21Z"/><rect class="cls-2" x="800.82" y="127.52" width="1.05" height="48.4"/><path class="cls-3" d="M512.26,117.71v0c33.29,1,60.06,27.52,61.09,60.42h.07V117.71Z"/><g class="cls-4"><polygon class="cls-5" points="544.59 88.77 602.68 146.22 660.78 88.77 602.68 31.32 544.59 88.77"/></g><g class="cls-6"><polygon class="cls-7" points="482.4 109.26 581.96 207.72 681.51 109.26 581.96 10.81 482.4 109.26"/></g><path class="cls-2" d="M680.57,160.62c0,1,0,4.25-3.58,4.25-4.08,0-4.08-3.38-4.08-6.36v-12c0-3.22,1.27-4.86,3.79-4.86a3.38,3.38,0,0,1,3.38,2.68c.32,1.05.32,1.8.32,4.89v.32h2.93v-2.75c0-5.17-2.26-7.79-6.74-7.79-3.05,0-6.68,1.27-6.68,7.35v12.85c0,2.09.11,4.27,1.32,6a6.22,6.22,0,0,0,5.31,2.47c7.06,0,7.06-5.66,7.06-7.51v-3.91h-3Z"/><polygon class="cls-2" points="701.66 129.44 695.36 129.44 690.23 136.06 692.94 136.06 701.66 129.44"/><path class="cls-2" d="M700.07,164V145.26c0-1.75,0-6.41-6-6.41-6.68,0-6.68,4.82-6.68,9.07v.3h3v-.3c0-4.11.16-6.25,3.42-6.25,3,0,3.25,1.76,3.25,4.25V149a20.86,20.86,0,0,1-3.68,2.24l-.81.42c-3.21,1.66-6.33,3.73-6.33,9,0,4.3,2.17,6.84,5.79,6.84a8.15,8.15,0,0,0,5.22-2c.61,1.67,1.87,2,4.15,2h.3V164.7h-.3c-1,0-1.36-.15-1.36-.71m-2.94-11.68v9.91c-1,1.12-2.3,2.48-4.58,2.48-3,0-3.3-3-3.3-4,0-3.94,2.22-5.2,5-6.79l.52-.27c1.38-.75,1.84-1,2.36-1.36"/><path class="cls-2" d="M712.58,138.74a6.2,6.2,0,0,0-4.86,2.16V139h-3v37.53h3V165.76a5.73,5.73,0,0,0,4.47,1.86c2.76,0,6-1.75,6-6.72V147.36a15.6,15.6,0,0,0-.45-4.75,5.32,5.32,0,0,0-5.12-3.87m2.59,6.79v14.2c0,2.49-.27,5.14-3.42,5.14a4.12,4.12,0,0,1-4-2.87V144.81a4.32,4.32,0,0,1,4.14-3.35c1,0,3.31.4,3.31,4.07"/><path class="cls-2" d="M730.86,152.51c-5.39-4.43-5.39-5.14-5.39-7.48,0-1.23,0-3.31,3.19-3.31s3.14,1.79,3.14,6.08v.32h3v-2.25c0-2.09,0-7-6.13-7-4.1,0-6.18,2.12-6.18,6.29s2.06,5.93,5.18,8.57c3.93,3.32,4.54,3.84,4.54,6.63,0,3.9-2.19,4.36-3.81,4.36-4,0-4-3.21-4-4.92v-2.73h-2.93v.29c0,4.33,0,6.51,1.58,8.19,1.14,1.31,3,2,5.38,2a7.21,7.21,0,0,0,4.68-1.46c1.39-1.2,2.1-3.14,2.1-5.78,0-4.3-1.73-5.71-4.31-7.82"/><path class="cls-2" d="M748.83,161.67c-.51,1.2-1.43,3.36-4,3.36-2.26,0-3.37-1.57-3.37-4.8V139h-2.91v21.81c0,1.51,0,4.33,2.34,5.91a5.73,5.73,0,0,0,3.22.93,6.13,6.13,0,0,0,4.75-2.22v2.07h3V139h-3Z"/><rect class="cls-2" x="756.75" y="127.76" width="2.99" height="39.74"/><path class="cls-2" d="M777,164V145.26c0-1.75,0-6.41-6-6.41-6.68,0-6.68,4.82-6.68,9.07v.3h3v-.3c0-4.11.15-6.25,3.41-6.25,3,0,3.25,1.76,3.25,4.25V149a20.49,20.49,0,0,1-3.68,2.24l-.83.42c-3.18,1.66-6.31,3.73-6.31,9,0,4.3,2.17,6.84,5.79,6.84a8.23,8.23,0,0,0,5.23-2c.6,1.67,1.86,2,4.15,2h.3V164.7h-.3c-1.06,0-1.37-.15-1.37-.71m-2.93-11.68v9.91c-1.07,1.18-2.31,2.48-4.58,2.48-3.07,0-3.31-3-3.31-4,0-3.94,2.22-5.2,5-6.79l.52-.27c1.38-.75,1.83-1,2.37-1.36"/><path class="cls-2" d="M789.63,152.51c-5.39-4.43-5.39-5.14-5.39-7.48,0-1.23,0-3.31,3.2-3.31s3.15,1.79,3.15,6.08v.32h3v-2.25c0-2.09,0-7-6.12-7-4.09,0-6.18,2.12-6.18,6.29s2,5.93,5.18,8.57c3.92,3.32,4.52,3.84,4.52,6.63,0,3.9-2.16,4.36-3.8,4.36-4,0-4-3.21-4-4.92v-2.73h-2.92v.29c0,4.33,0,6.51,1.57,8.19,1.15,1.31,3,2,5.38,2a7.16,7.16,0,0,0,4.68-1.46c1.41-1.2,2.1-3.14,2.1-5.78,0-4.3-1.72-5.7-4.31-7.82"/><polygon class="cls-2" points="807.61 158.09 808.1 160.06 810.4 158.74 810.4 171.12 812.73 171.12 812.73 156.18 810.89 156.18 807.61 158.09"/><path class="cls-2" d="M819.42,156c-2.6,0-4.08,2.8-4.08,7.67s1.42,7.61,3.87,7.61c1.21,0,4-.74,4-7.66,0-4.92-1.36-7.62-3.84-7.62m1.49,7.65c0,3.47-.57,5.54-1.56,5.54s-1.67-2.07-1.67-5.54.63-5.56,1.65-5.56,1.58,2.09,1.58,5.56"/><path class="cls-2" d="M836.87,159.65a2.78,2.78,0,0,0-1.64.48,3,3,0,0,0-.86.83,2.47,2.47,0,0,0-2.3-1.31,2.89,2.89,0,0,0-2.16.95l-.06-.78h-2.1v.34q0,.47,0,.9c0,.5.05,1,.05,1.83v8.22h2.33V164a6,6,0,0,1,.05-.87c.17-1,.78-1.44,1.27-1.44s1.15.23,1.15,2.09v7.29H835V164a5.78,5.78,0,0,1,0-.89c.2-.82.69-1.33,1.24-1.33.84,0,1.18.7,1.18,2.4v7h2.32v-7.38c0-3.68-2-4.08-2.88-4.08"/><path class="cls-2" d="M846.45,160.43a2.31,2.31,0,0,0-1.77-.78c-1.77,0-3.66,1.83-3.66,5.87,0,3.32,1.38,5.57,3.45,5.57a2.51,2.51,0,0,0,1.76-.68v.14c0,2.61-1,2.93-1.86,2.93a4,4,0,0,1-1.82-.42l-.35-.19-.58,1.95.23.13a5.37,5.37,0,0,0,2.48.57,4,4,0,0,0,3.08-1.26c.83-.92,1.13-2.18,1.13-4.83v-6c0-1.17,0-2,.07-2.62q0-.37,0-.69v-.34H846.5Zm-.3,2.72a2.3,2.3,0,0,1,.08.67v3.08a2.86,2.86,0,0,1-.11.88c-.34,1.28-1,1.28-1.2,1.28-.95,0-1.56-1.43-1.56-3.63s.61-3.68,1.56-3.68c.59,0,1,.43,1.23,1.4"/><path class="cls-2" d="M822.06,130.25H819.9l-4.75,9.39,0,1.61h4.75v3.94h2.18v-3.94h1.56v-2h-1.56Zm-4.52,9,1.78-3.7c.2-.43.4-.83.59-1.27,0,.4,0,.81,0,1.26v3.71Z"/><path class="cls-2" d="M836.87,133.73a2.89,2.89,0,0,0-1.66.46,3.46,3.46,0,0,0-.86.85,2.42,2.42,0,0,0-2.28-1.31,3,3,0,0,0-2.17.94l-.06-.77h-2.1v.33c0,.32,0,.62,0,.92,0,.51.06,1,.06,1.82v8.22h2.32v-7.08a5.86,5.86,0,0,1,.05-.86c.17-1,.78-1.46,1.26-1.46s1.16.25,1.16,2.1v7.3h2.31V138a5.61,5.61,0,0,1,.06-.88c.2-.82.7-1.35,1.25-1.35.83,0,1.17.7,1.17,2.42v7h2.31V137.8c0-3.69-2-4.07-2.86-4.07"/><path class="cls-2" d="M846.48,133.9l0,.6a2.23,2.23,0,0,0-1.76-.77c-1.77,0-3.68,1.84-3.68,5.85,0,3.34,1.4,5.59,3.46,5.59a2.57,2.57,0,0,0,1.77-.68v.14c0,2.6-1,2.93-1.86,2.93a4,4,0,0,1-1.84-.43l-.33-.17-.59,1.93.23.11a5.42,5.42,0,0,0,2.49.57,3.91,3.91,0,0,0,3.06-1.24c.85-.91,1.14-2.18,1.14-4.84v-5.94c0-1.19.05-2,.06-2.66,0-.25,0-.46,0-.66l0-.33Zm-.25,4V141a3.31,3.31,0,0,1-.11.88c-.35,1.27-1,1.27-1.2,1.27-1,0-1.57-1.43-1.57-3.63s.61-3.69,1.57-3.69c.59,0,1,.43,1.23,1.42a2.62,2.62,0,0,1,.08.66"/><path class="cls-2" d="M655.17,118.07a10.53,10.53,0,0,1-10.48-10.49v-36h6.41v35.12a5.36,5.36,0,0,0,1.59,4,5.43,5.43,0,0,0,4,1.58h32.39v5.75Z"/><path class="cls-2" d="M737.58,71.62V77.5H705.19a5.37,5.37,0,0,0-5.56,5.57v8.05h31.55V97H699.63v9.63a5.34,5.34,0,0,0,5.56,5.57h32.39v5.87H703.69a10.52,10.52,0,0,1-10.47-10.48V82.1a10.5,10.5,0,0,1,10.47-10.48Z"/><polygon class="cls-2" points="792.29 118.07 787.25 118.07 750.65 82.03 750.65 118.11 744.24 118.11 744.24 71.62 749.27 71.62 785.87 107.51 785.87 71.58 792.29 71.58 792.29 118.07"/><polygon class="cls-2" points="805.08 71.62 825.58 112.17 846.12 71.62 853.38 71.62 829.42 118.07 821.78 118.07 797.79 71.62 805.08 71.62"/><rect class="cls-2" x="858.87" y="71.63" width="6.36" height="46.45"/><rect class="cls-2" x="931.01" y="71.63" width="6.37" height="46.45"/><polygon class="cls-2" points="916.97 118.07 925.51 118.07 902.4 94.84 902.56 94.67 925.51 71.62 916.97 71.62 898.13 90.56 897.95 90.38 879.27 71.62 870.73 71.62 893.85 94.84 893.68 95.02 870.73 118.07 879.27 118.07 898.13 99.14 898.29 99.31 916.97 118.07"/><path class="cls-2" d="M941.39,77.81v0a6,6,0,1,1,12.07,0v0a6,6,0,1,1-12.07,0m11.38,0v0a5.34,5.34,0,1,0-10.68,0v0a5.3,5.3,0,0,0,5.33,5.37,5.36,5.36,0,0,0,5.35-5.41m-8-3.3h3c1.56,0,2.68.66,2.68,2.17a2.06,2.06,0,0,1-1.32,2l1.52,2.22h-2.08L947.36,79h-.76v1.91h-1.8Zm3,3.06c.6,0,1-.31,1-.77s-.35-.76-1-.76H946.6v1.53Z"/><rect class="cls-2" x="854.14" y="138.03" width="4.7" height="1.84"/><path class="cls-2" d="M871,145a5.77,5.77,0,0,1-2.24.39c-3.49,0-5.47-2.93-5.47-7.78,0-6,3.09-8.2,5.81-8.2a4.2,4.2,0,0,1,2,.4l-.45,2.09a3.26,3.26,0,0,0-1.45-.31c-1.64,0-3.34,1.57-3.34,5.86s1.54,5.73,3.36,5.73a3.92,3.92,0,0,0,1.49-.28Z"/><rect class="cls-2" x="872.2" y="129.11" width="2.42" height="16.11"/><path class="cls-2" d="M881.4,145.23l-.12-1.17h0a2.71,2.71,0,0,1-2.33,1.36c-1.58,0-2.78-1.39-2.78-3.36,0-2.9,2.4-4.15,4.88-4.17v-.3c0-1.17-.46-2-1.65-2a3.64,3.64,0,0,0-2.05.64l-.46-1.7a6,6,0,0,1,3-.83c2.85,0,3.58,2,3.58,4.43v4.53a17.48,17.48,0,0,0,.15,2.58Zm-.33-5.69c-1,0-2.65.29-2.65,2.26,0,1.28.66,1.75,1.21,1.75a1.47,1.47,0,0,0,1.37-1.3,2.12,2.12,0,0,0,.07-.59Z"/><path class="cls-2" d="M886.81,133.88l1.09,5.66c.15.89.32,1.92.47,3h0c.14-1,.3-2,.45-3l1.08-5.66h2.38l-2.92,11.35h-2.18l-3-11.35Z"/><path class="cls-2" d="M895,140.22c0,2.53,1.18,3.23,2.46,3.23a4.54,4.54,0,0,0,2-.42l.32,1.8a6.76,6.76,0,0,1-2.75.54c-2.83,0-4.36-2.12-4.36-5.64,0-3.75,1.75-6,4.11-6s3.49,2.18,3.49,5.2c0,.65-.06,1-.08,1.33Zm3-1.76c0-1.82-.58-2.89-1.42-2.89-1.05,0-1.52,1.56-1.56,2.89Z"/><path class="cls-2" d="M911.66,132a6.13,6.13,0,0,0-1.16.14c-2.15.53-3.12,2.58-3.5,4.68h.1a2.69,2.69,0,0,1,2.35-1.31c1.93,0,3.25,1.79,3.25,4.66s-1.28,5.28-3.92,5.28-4.19-2.55-4.19-6.22a10.72,10.72,0,0,1,2.16-6.93,6.36,6.36,0,0,1,3.61-2.18c.59-.12,1-.14,1.3-.18Zm-1.35,8.24c0-1.74-.57-2.91-1.65-2.91a1.7,1.7,0,0,0-1.51,1.28,3.08,3.08,0,0,0-.15,1.14c0,2.49.72,3.87,1.75,3.87s1.56-1.21,1.56-3.38"/><polygon class="cls-2" points="917.13 132.5 917.08 132.5 914.63 133.88 914.18 131.94 917.44 130.09 919.51 130.09 919.51 145.22 917.13 145.22 917.13 132.5"/><polygon class="cls-2" points="930.43 130.09 930.43 131.68 925.77 145.23 923.41 145.23 927.98 132.32 927.98 132.27 922.85 132.27 922.85 130.09 930.43 130.09"/><polygon class="cls-2" points="935.12 132.5 935.05 132.5 932.6 133.88 932.17 131.94 935.44 130.09 937.49 130.09 937.49 145.22 935.12 145.22 935.12 132.5"/><rect class="cls-2" x="854.14" y="163.97" width="4.7" height="1.83"/><path class="cls-2" d="M871,170.9a5.4,5.4,0,0,1-2.24.4c-3.49,0-5.47-2.92-5.47-7.79,0-6,3.09-8.19,5.81-8.19a4.2,4.2,0,0,1,2,.4l-.45,2.1a2.89,2.89,0,0,0-1.45-.31c-1.64,0-3.34,1.56-3.34,5.84s1.54,5.74,3.36,5.74a3.56,3.56,0,0,0,1.49-.29Z"/><rect class="cls-2" x="872.2" y="155.05" width="2.42" height="16.11"/><path class="cls-2" d="M881.4,171.16l-.12-1.17h0a2.7,2.7,0,0,1-2.33,1.37c-1.58,0-2.78-1.39-2.78-3.38,0-2.9,2.4-4.13,4.88-4.16v-.31c0-1.16-.46-2-1.65-2a3.79,3.79,0,0,0-2.05.63l-.46-1.69a6,6,0,0,1,3-.81c2.85,0,3.58,2,3.58,4.41v4.52a17.54,17.54,0,0,0,.15,2.59Zm-.33-5.69c-1,0-2.65.28-2.65,2.27,0,1.28.66,1.74,1.21,1.74a1.47,1.47,0,0,0,1.37-1.31,2,2,0,0,0,.07-.58Z"/><path class="cls-2" d="M886.81,159.82l1.09,5.65c.15.88.32,1.92.47,3h0c.14-1,.3-2,.45-3l1.08-5.65h2.38l-2.92,11.35h-2.18l-3-11.35Z"/><path class="cls-2" d="M895,166.15c0,2.53,1.18,3.22,2.46,3.22a5,5,0,0,0,2-.4l.32,1.78a6.76,6.76,0,0,1-2.75.55c-2.83,0-4.36-2.12-4.36-5.63,0-3.76,1.75-6,4.11-6s3.49,2.15,3.49,5.19c0,.64-.06,1-.08,1.32Zm3-1.77c0-1.82-.58-2.89-1.42-2.89-1.05,0-1.52,1.55-1.56,2.89Z"/><path class="cls-2" d="M911.66,157.88a5.5,5.5,0,0,0-1.16.15c-2.15.53-3.12,2.57-3.5,4.66h.1a2.74,2.74,0,0,1,2.35-1.29c1.93,0,3.25,1.8,3.25,4.66s-1.28,5.29-3.92,5.29-4.19-2.57-4.19-6.23a10.75,10.75,0,0,1,2.16-6.94,6.54,6.54,0,0,1,3.61-2.19,8.66,8.66,0,0,1,1.3-.15Zm-1.35,8.25c0-1.75-.57-2.91-1.65-2.91a1.72,1.72,0,0,0-1.51,1.28,3.08,3.08,0,0,0-.15,1.14c0,2.49.72,3.86,1.75,3.86s1.56-1.21,1.56-3.37"/><polygon class="cls-2" points="917.13 158.42 917.08 158.42 914.63 159.8 914.18 157.86 917.44 156.01 919.51 156.01 919.51 171.16 917.13 171.16 917.13 158.42"/><polygon class="cls-2" points="930.43 156.02 930.43 157.61 925.77 171.16 923.41 171.16 927.98 158.26 927.98 158.2 922.85 158.2 922.85 156.02 930.43 156.02"/><path class="cls-2" d="M931.61,171.16V169.5l1.36-1.83c1.83-2.5,3.61-4.93,3.61-7.39,0-1.43-.68-2.35-2-2.35a3.81,3.81,0,0,0-2.15.78l-.49-1.9a5.42,5.42,0,0,1,3.08-1c2.86,0,3.93,2,3.93,4.28,0,2.84-1.76,5.3-3.53,7.58l-.92,1.22V169h4.67v2.18Z"/></g></g></svg>